<mxfile host="app.diagrams.net" modified="2023-09-15T11:59:49.646Z" agent="Mozilla/5.0 (Windows NT 10.0; Win64; x64) AppleWebKit/537.36 (KHTML, like Gecko) Chrome/116.0.0.0 Safari/537.36 Edg/116.0.1938.81" etag="9iVFT_NcB8zyOOrMea9J" version="21.7.2" type="github">
  <diagram name="第 1 页" id="_s6Ddz2hnzWew_Qon0xN">
    <mxGraphModel dx="1052" dy="707" grid="1" gridSize="10" guides="1" tooltips="1" connect="1" arrows="1" fold="1" page="1" pageScale="1" pageWidth="827" pageHeight="1169" math="0" shadow="0">
      <root>
        <mxCell id="0" />
        <mxCell id="1" parent="0" />
        <mxCell id="KonkRnaKJ9EMoXM3SOrm-1" style="rounded=0;orthogonalLoop=1;jettySize=auto;html=1;exitX=0.5;exitY=0.5;exitDx=0;exitDy=0;exitPerimeter=0;entryX=0;entryY=0.5;entryDx=0;entryDy=0;" parent="1" source="KonkRnaKJ9EMoXM3SOrm-6" target="KonkRnaKJ9EMoXM3SOrm-7" edge="1">
          <mxGeometry relative="1" as="geometry" />
        </mxCell>
        <mxCell id="KonkRnaKJ9EMoXM3SOrm-5" style="edgeStyle=none;rounded=0;orthogonalLoop=1;jettySize=auto;html=1;exitX=0.5;exitY=0.5;exitDx=0;exitDy=0;exitPerimeter=0;entryX=0;entryY=0.5;entryDx=0;entryDy=0;" parent="1" source="KonkRnaKJ9EMoXM3SOrm-6" target="KonkRnaKJ9EMoXM3SOrm-11" edge="1">
          <mxGeometry relative="1" as="geometry" />
        </mxCell>
        <mxCell id="KonkRnaKJ9EMoXM3SOrm-6" value="&lt;font style=&quot;font-size: 15px;&quot;&gt;网络管理员&lt;/font&gt;" style="shape=umlActor;verticalLabelPosition=bottom;verticalAlign=top;html=1;outlineConnect=0;" parent="1" vertex="1">
          <mxGeometry x="60" y="340" width="30" height="60" as="geometry" />
        </mxCell>
        <mxCell id="KonkRnaKJ9EMoXM3SOrm-7" value="&lt;font style=&quot;font-size: 15px;&quot;&gt;配置功能&lt;/font&gt;" style="ellipse;whiteSpace=wrap;html=1;" parent="1" vertex="1">
          <mxGeometry x="310" y="160" width="120" height="80" as="geometry" />
        </mxCell>
        <mxCell id="KonkRnaKJ9EMoXM3SOrm-11" value="&lt;font style=&quot;font-size: 15px;&quot;&gt;查询功能&lt;/font&gt;" style="ellipse;whiteSpace=wrap;html=1;" parent="1" vertex="1">
          <mxGeometry x="310" y="600" width="120" height="80" as="geometry" />
        </mxCell>
        <mxCell id="KonkRnaKJ9EMoXM3SOrm-13" value="&lt;font style=&quot;font-size: 15px;&quot;&gt;配置认证/计费服务器&lt;/font&gt;" style="ellipse;whiteSpace=wrap;html=1;flipV=0;" parent="1" vertex="1">
          <mxGeometry x="590" y="40" width="150" height="80" as="geometry" />
        </mxCell>
        <mxCell id="KonkRnaKJ9EMoXM3SOrm-14" value="&lt;font style=&quot;font-size: 15px;&quot;&gt;配置认证模板&lt;/font&gt;" style="ellipse;whiteSpace=wrap;html=1;flipV=0;" parent="1" vertex="1">
          <mxGeometry x="605" y="160" width="120" height="80" as="geometry" />
        </mxCell>
        <mxCell id="KonkRnaKJ9EMoXM3SOrm-15" value="&lt;font style=&quot;font-size: 15px;&quot;&gt;配置端口信息&lt;/font&gt;" style="ellipse;whiteSpace=wrap;html=1;flipV=0;" parent="1" vertex="1">
          <mxGeometry x="605" y="280" width="120" height="80" as="geometry" />
        </mxCell>
        <mxCell id="KonkRnaKJ9EMoXM3SOrm-17" value="&lt;font style=&quot;font-size: 15px;&quot;&gt;查看认证/计费&lt;br&gt;服务器信息&lt;/font&gt;" style="ellipse;whiteSpace=wrap;html=1;flipV=0;" parent="1" vertex="1">
          <mxGeometry x="583" y="430" width="156" height="80" as="geometry" />
        </mxCell>
        <mxCell id="KonkRnaKJ9EMoXM3SOrm-18" value="&lt;font style=&quot;font-size: 15px;&quot;&gt;查看认证&lt;br&gt;模板信息&lt;/font&gt;" style="ellipse;whiteSpace=wrap;html=1;flipV=0;" parent="1" vertex="1">
          <mxGeometry x="596" y="545" width="130" height="80" as="geometry" />
        </mxCell>
        <mxCell id="KonkRnaKJ9EMoXM3SOrm-19" value="&lt;font style=&quot;font-size: 15px;&quot;&gt;查看端口&lt;br&gt;配置信息&lt;/font&gt;" style="ellipse;whiteSpace=wrap;html=1;flipV=0;" parent="1" vertex="1">
          <mxGeometry x="594" y="670" width="120" height="80" as="geometry" />
        </mxCell>
        <mxCell id="KonkRnaKJ9EMoXM3SOrm-20" value="&lt;font style=&quot;font-size: 15px;&quot;&gt;查看用户&lt;br&gt;数据信息&lt;/font&gt;" style="ellipse;whiteSpace=wrap;html=1;flipV=0;" parent="1" vertex="1">
          <mxGeometry x="594" y="780" width="120" height="80" as="geometry" />
        </mxCell>
        <mxCell id="KonkRnaKJ9EMoXM3SOrm-21" value="" style="endArrow=classicThin;dashed=1;html=1;dashPattern=1 3;strokeWidth=2;rounded=0;exitX=1;exitY=0.5;exitDx=0;exitDy=0;entryX=0;entryY=0.5;entryDx=0;entryDy=0;endFill=1;" parent="1" source="KonkRnaKJ9EMoXM3SOrm-7" target="KonkRnaKJ9EMoXM3SOrm-13" edge="1">
          <mxGeometry width="50" height="50" relative="1" as="geometry">
            <mxPoint x="890" y="520" as="sourcePoint" />
            <mxPoint x="940" y="470" as="targetPoint" />
          </mxGeometry>
        </mxCell>
        <mxCell id="KonkRnaKJ9EMoXM3SOrm-22" value="《include》" style="edgeLabel;html=1;align=center;verticalAlign=middle;resizable=0;points=[];" parent="KonkRnaKJ9EMoXM3SOrm-21" vertex="1" connectable="0">
          <mxGeometry x="-0.3104" y="3" relative="1" as="geometry">
            <mxPoint x="-3" y="-26" as="offset" />
          </mxGeometry>
        </mxCell>
        <mxCell id="KonkRnaKJ9EMoXM3SOrm-24" value="" style="endArrow=classicThin;dashed=1;html=1;dashPattern=1 3;strokeWidth=2;rounded=0;exitX=1;exitY=0.5;exitDx=0;exitDy=0;entryX=0;entryY=0.5;entryDx=0;entryDy=0;endFill=1;" parent="1" source="KonkRnaKJ9EMoXM3SOrm-7" target="KonkRnaKJ9EMoXM3SOrm-14" edge="1">
          <mxGeometry width="50" height="50" relative="1" as="geometry">
            <mxPoint x="427" y="214.03999999999996" as="sourcePoint" />
            <mxPoint x="604.9999999999999" y="215" as="targetPoint" />
            <Array as="points">
              <mxPoint x="430" y="200" />
            </Array>
          </mxGeometry>
        </mxCell>
        <mxCell id="KonkRnaKJ9EMoXM3SOrm-25" value="《include》" style="edgeLabel;html=1;align=center;verticalAlign=middle;resizable=0;points=[];" parent="KonkRnaKJ9EMoXM3SOrm-24" vertex="1" connectable="0">
          <mxGeometry x="-0.1282" y="-1" relative="1" as="geometry">
            <mxPoint x="9" y="-20" as="offset" />
          </mxGeometry>
        </mxCell>
        <mxCell id="KonkRnaKJ9EMoXM3SOrm-26" value="" style="endArrow=classicThin;dashed=1;html=1;dashPattern=1 3;strokeWidth=2;rounded=0;entryX=0;entryY=0.5;entryDx=0;entryDy=0;endFill=1;exitX=1;exitY=0.5;exitDx=0;exitDy=0;" parent="1" source="KonkRnaKJ9EMoXM3SOrm-7" target="KonkRnaKJ9EMoXM3SOrm-15" edge="1">
          <mxGeometry width="50" height="50" relative="1" as="geometry">
            <mxPoint x="432" y="208" as="sourcePoint" />
            <mxPoint x="940" y="470" as="targetPoint" />
          </mxGeometry>
        </mxCell>
        <mxCell id="KonkRnaKJ9EMoXM3SOrm-27" value="《include》" style="edgeLabel;html=1;align=center;verticalAlign=middle;resizable=0;points=[];" parent="KonkRnaKJ9EMoXM3SOrm-26" vertex="1" connectable="0">
          <mxGeometry x="-0.1243" relative="1" as="geometry">
            <mxPoint x="-8" y="23" as="offset" />
          </mxGeometry>
        </mxCell>
        <mxCell id="KonkRnaKJ9EMoXM3SOrm-29" value="" style="endArrow=classicThin;dashed=1;html=1;dashPattern=1 3;strokeWidth=2;rounded=0;exitX=1;exitY=0.5;exitDx=0;exitDy=0;entryX=0;entryY=0.5;entryDx=0;entryDy=0;endFill=1;" parent="1" source="KonkRnaKJ9EMoXM3SOrm-11" edge="1">
          <mxGeometry width="50" height="50" relative="1" as="geometry">
            <mxPoint x="427" y="639.5" as="sourcePoint" />
            <mxPoint x="590" y="470" as="targetPoint" />
          </mxGeometry>
        </mxCell>
        <mxCell id="KonkRnaKJ9EMoXM3SOrm-30" value="《include》" style="edgeLabel;html=1;align=center;verticalAlign=middle;resizable=0;points=[];" parent="KonkRnaKJ9EMoXM3SOrm-29" vertex="1" connectable="0">
          <mxGeometry x="-0.1282" y="-1" relative="1" as="geometry">
            <mxPoint x="11" y="-56" as="offset" />
          </mxGeometry>
        </mxCell>
        <mxCell id="KonkRnaKJ9EMoXM3SOrm-31" value="" style="endArrow=classicThin;dashed=1;html=1;dashPattern=1 3;strokeWidth=2;rounded=0;entryX=0;entryY=0.5;entryDx=0;entryDy=0;endFill=1;" parent="1" target="KonkRnaKJ9EMoXM3SOrm-18" edge="1">
          <mxGeometry width="50" height="50" relative="1" as="geometry">
            <mxPoint x="430" y="640" as="sourcePoint" />
            <mxPoint x="605" y="640.5" as="targetPoint" />
          </mxGeometry>
        </mxCell>
        <mxCell id="KonkRnaKJ9EMoXM3SOrm-32" value="《include》" style="edgeLabel;html=1;align=center;verticalAlign=middle;resizable=0;points=[];" parent="KonkRnaKJ9EMoXM3SOrm-31" vertex="1" connectable="0">
          <mxGeometry x="-0.1282" y="-1" relative="1" as="geometry">
            <mxPoint x="19" y="-32" as="offset" />
          </mxGeometry>
        </mxCell>
        <mxCell id="KonkRnaKJ9EMoXM3SOrm-33" value="" style="endArrow=classicThin;dashed=1;html=1;dashPattern=1 3;strokeWidth=2;rounded=0;entryX=0;entryY=0.5;entryDx=0;entryDy=0;endFill=1;" parent="1" target="KonkRnaKJ9EMoXM3SOrm-19" edge="1">
          <mxGeometry width="50" height="50" relative="1" as="geometry">
            <mxPoint x="430" y="640" as="sourcePoint" />
            <mxPoint x="648" y="711" as="targetPoint" />
          </mxGeometry>
        </mxCell>
        <mxCell id="KonkRnaKJ9EMoXM3SOrm-34" value="《include》" style="edgeLabel;html=1;align=center;verticalAlign=middle;resizable=0;points=[];" parent="KonkRnaKJ9EMoXM3SOrm-33" vertex="1" connectable="0">
          <mxGeometry x="-0.1282" y="-1" relative="1" as="geometry">
            <mxPoint x="19" y="-20" as="offset" />
          </mxGeometry>
        </mxCell>
        <mxCell id="KonkRnaKJ9EMoXM3SOrm-35" value="" style="endArrow=classicThin;dashed=1;html=1;dashPattern=1 3;strokeWidth=2;rounded=0;exitX=0.995;exitY=0.499;exitDx=0;exitDy=0;exitPerimeter=0;entryX=0;entryY=0.5;entryDx=0;entryDy=0;endFill=1;" parent="1" source="KonkRnaKJ9EMoXM3SOrm-11" target="KonkRnaKJ9EMoXM3SOrm-20" edge="1">
          <mxGeometry width="50" height="50" relative="1" as="geometry">
            <mxPoint x="310" y="800" as="sourcePoint" />
            <mxPoint x="488" y="801" as="targetPoint" />
          </mxGeometry>
        </mxCell>
        <mxCell id="KonkRnaKJ9EMoXM3SOrm-36" value="《include》" style="edgeLabel;html=1;align=center;verticalAlign=middle;resizable=0;points=[];" parent="KonkRnaKJ9EMoXM3SOrm-35" vertex="1" connectable="0">
          <mxGeometry x="-0.1282" y="-1" relative="1" as="geometry">
            <mxPoint x="18" y="-14" as="offset" />
          </mxGeometry>
        </mxCell>
      </root>
    </mxGraphModel>
  </diagram>
</mxfile>
